<svg width="20" height="23" viewBox="0 0 20 23" fill="none" xmlns="http://www.w3.org/2000/svg">
<path d="M12.9754 2.42529L13.9352 0.693695C13.9475 0.67148 13.9553 0.647057 13.9582 0.62182C13.9611 0.596583 13.9589 0.571027 13.9519 0.54661C13.9449 0.522193 13.9332 0.499394 13.9174 0.479515C13.9016 0.459636 13.882 0.443065 13.8598 0.43075C13.8149 0.405878 13.762 0.399847 13.7127 0.413985C13.6634 0.428122 13.6217 0.46127 13.5968 0.506135L12.6264 2.25692C11.7984 1.89392 10.9041 1.70651 10 1.70651C9.09593 1.70651 8.20166 1.89392 7.37364 2.25692L6.40316 0.506135C6.37829 0.46127 6.33661 0.428122 6.2873 0.413985C6.23799 0.399847 6.18508 0.405878 6.14022 0.43075C6.09535 0.455622 6.0622 0.497298 6.04807 0.54661C6.03393 0.595922 6.03996 0.64883 6.06483 0.693695L7.02468 2.4253C6.11101 2.87566 5.33902 3.56896 4.79339 4.42915C4.24776 5.28933 3.94957 6.28317 3.93152 7.30164H16.0685C16.0505 6.28316 15.7523 5.28932 15.2066 4.42914C14.661 3.56896 13.889 2.87566 12.9754 2.42529ZM7.19911 5.08088C7.09888 5.08088 7.00089 5.05116 6.91755 4.99547C6.83421 4.93979 6.76925 4.86063 6.73089 4.76803C6.69253 4.67542 6.6825 4.57352 6.70205 4.47521C6.72161 4.3769 6.76987 4.2866 6.84075 4.21572C6.91163 4.14485 7.00193 4.09658 7.10024 4.07702C7.19855 4.05747 7.30045 4.0675 7.39306 4.10586C7.48566 4.14422 7.56481 4.20918 7.6205 4.29252C7.67619 4.37586 7.70591 4.47385 7.70591 4.57409C7.70576 4.70845 7.65232 4.83727 7.55731 4.93228C7.4623 5.02729 7.33348 5.08073 7.19911 5.08088ZM12.8009 5.08088C12.7007 5.08088 12.6027 5.05116 12.5193 4.99547C12.436 4.93979 12.371 4.86063 12.3327 4.76803C12.2943 4.67542 12.2843 4.57352 12.3038 4.47521C12.3234 4.3769 12.3717 4.2866 12.4425 4.21572C12.5134 4.14485 12.6037 4.09658 12.702 4.07702C12.8003 4.05747 12.9022 4.0675 12.9948 4.10586C13.0874 4.14422 13.1666 4.20918 13.2223 4.29252C13.278 4.37586 13.3077 4.47385 13.3077 4.57409C13.3075 4.70845 13.2541 4.83727 13.1591 4.93228C13.0641 5.02729 12.9353 5.08073 12.8009 5.08088ZM3.93143 16.5779C3.93143 16.967 4.086 17.3402 4.36114 17.6153C4.63629 17.8904 5.00945 18.045 5.39856 18.045H6.37216V21.046C6.37168 21.2249 6.40651 21.4022 6.47466 21.5677C6.54281 21.7332 6.64295 21.8836 6.76932 22.0103C6.8957 22.1371 7.04584 22.2376 7.21114 22.3062C7.37644 22.3748 7.55365 22.4101 7.73262 22.4101C7.91159 22.4101 8.0888 22.3748 8.25409 22.3062C8.41939 22.2376 8.56953 22.1371 8.69591 22.0103C8.82229 21.8836 8.92242 21.7332 8.99057 21.5677C9.05873 21.4022 9.09356 21.2249 9.09307 21.046V18.045H10.9069V21.046C10.9064 21.2249 10.9413 21.4022 11.0094 21.5677C11.0776 21.7332 11.1777 21.8836 11.3041 22.0103C11.4305 22.1371 11.5806 22.2376 11.7459 22.3062C11.9112 22.3748 12.0884 22.4101 12.2674 22.4101C12.4464 22.4101 12.6236 22.3748 12.7889 22.3062C12.9542 22.2376 13.1043 22.1371 13.2307 22.0103C13.3571 21.8836 13.4572 21.7332 13.5253 21.5677C13.5935 21.4022 13.6283 21.2249 13.6278 21.046V18.045H14.6015C14.9906 18.045 15.3638 17.8904 15.6389 17.6153C15.914 17.3402 16.0686 16.967 16.0686 16.5779V7.78175H3.93143V16.5779ZM2.06415 7.54833C1.70346 7.54874 1.35766 7.69221 1.10262 7.94726C0.847573 8.20231 0.70411 8.54811 0.703702 8.9088V14.5773C0.703217 14.7562 0.738048 14.9335 0.8062 15.099C0.874352 15.2645 0.974485 15.4149 1.10086 15.5416C1.22724 15.6684 1.37738 15.7689 1.54268 15.8375C1.70798 15.9061 1.88519 15.9414 2.06416 15.9414C2.24313 15.9414 2.42034 15.9061 2.58563 15.8375C2.75093 15.7689 2.90107 15.6684 3.02745 15.5416C3.15383 15.4149 3.25396 15.2645 3.32211 15.099C3.39027 14.9335 3.4251 14.7562 3.42461 14.5773V8.9088C3.4242 8.5481 3.28074 8.2023 3.02569 7.94725C2.77064 7.69221 2.42484 7.54874 2.06415 7.54833ZM17.9359 7.54833C17.5752 7.54874 17.2294 7.69221 16.9743 7.94725C16.7193 8.2023 16.5758 8.5481 16.5754 8.9088V14.5773C16.5749 14.7562 16.6097 14.9335 16.6779 15.099C16.746 15.2645 16.8462 15.4149 16.9726 15.5416C17.0989 15.6684 17.2491 15.7689 17.4144 15.8375C17.5797 15.9061 17.7569 15.9414 17.9358 15.9414C18.1148 15.9414 18.292 15.9061 18.4573 15.8375C18.6226 15.7689 18.7728 15.6684 18.8991 15.5416C19.0255 15.4149 19.1257 15.2645 19.1938 15.099C19.262 14.9335 19.2968 14.7562 19.2963 14.5773V8.9088C19.2959 8.54811 19.1524 8.20231 18.8974 7.94726C18.6423 7.69221 18.2965 7.54874 17.9359 7.54833Z" fill="white"/>
</svg>
