<svg width="18" height="21" viewBox="0 0 18 21" fill="none" xmlns="http://www.w3.org/2000/svg">
<path d="M11.94 3.59637C12.3181 3.16065 12.6063 2.65454 12.7882 2.10711C12.9701 1.55967 13.0421 0.9817 13 0.406372C11.8394 0.500059 10.762 1.04593 10 1.92637C9.6351 2.34835 9.35858 2.83925 9.18681 3.37002C9.01504 3.90078 8.95152 4.46062 9 5.01637C9.56615 5.02109 10.1258 4.89547 10.6356 4.64923C11.1454 4.40299 11.5917 4.04275 11.94 3.59637ZM14.46 11.0364C14.4667 10.2701 14.6685 9.51819 15.0465 8.85157C15.4244 8.18496 15.9659 7.62563 16.62 7.22637C16.2072 6.63161 15.6615 6.14121 15.0262 5.79405C14.3909 5.44689 13.6835 5.25252 12.96 5.22637C11.4 5.06637 9.96 6.13637 9.13 6.13637C8.3 6.13637 7.13 5.24637 5.83 5.26637C4.98013 5.29437 4.15202 5.54215 3.42645 5.98556C2.70088 6.42896 2.10261 7.05285 1.69 7.79637C-0.0699968 10.8564 1.24 15.4064 3 17.8764C3.8 19.0864 4.8 20.4564 6.12 20.4064C7.44 20.3564 7.87 19.5864 9.4 19.5864C10.93 19.5864 11.4 20.4064 12.7 20.3764C14 20.3464 14.92 19.1364 15.76 17.9264C16.355 17.0479 16.8199 16.088 17.14 15.0764C16.3475 14.7384 15.6713 14.1757 15.195 13.4577C14.7188 12.7397 14.4632 11.8979 14.46 11.0364Z" fill="white"/>
</svg>
