<svg width="349" height="53" viewBox="0 0 349 53" fill="none" xmlns="http://www.w3.org/2000/svg">
<rect width="349" height="53" rx="10" fill="white"/>
<path d="M132.54 23.5L122.88 17.96C122.357 17.6582 121.764 17.5001 121.16 17.5017C120.557 17.5034 119.964 17.6648 119.443 17.9695C118.922 18.2742 118.491 18.7114 118.194 19.2366C117.896 19.7619 117.743 20.3565 117.75 20.96V32.08C117.75 32.9871 118.11 33.857 118.752 34.4983C119.393 35.1397 120.263 35.5 121.17 35.5C121.77 35.499 122.36 35.3404 122.88 35.04L132.54 29.5C133.059 29.1996 133.49 28.768 133.79 28.2485C134.089 27.7289 134.247 27.1397 134.247 26.54C134.247 25.9403 134.089 25.3511 133.79 24.8316C133.49 24.3121 133.059 23.8804 132.54 23.58V23.5ZM131.54 27.69L121.88 33.31C121.663 33.4327 121.419 33.4972 121.17 33.4972C120.921 33.4972 120.677 33.4327 120.46 33.31C120.244 33.1854 120.065 33.0061 119.94 32.7902C119.816 32.5743 119.75 32.3293 119.75 32.08V20.92C119.75 20.6707 119.816 20.4258 119.94 20.2099C120.065 19.994 120.244 19.8147 120.46 19.69C120.677 19.5692 120.921 19.5039 121.17 19.5C121.419 19.5051 121.662 19.5703 121.88 19.69L131.54 25.27C131.756 25.3946 131.935 25.5739 132.06 25.7898C132.185 26.0057 132.25 26.2507 132.25 26.5C132.25 26.7494 132.185 26.9943 132.06 27.2102C131.935 27.4262 131.756 27.6054 131.54 27.73V27.69Z" fill="#696C74"/>
<path d="M154.969 31.6016C155.828 31.6016 156.656 31.4766 157.445 31.2188C158.234 30.9688 158.891 30.6172 159.422 30.1797V25.4297H154.719V27.1641H157.5V29.0781C156.75 29.5859 155.906 29.8359 154.969 29.8359C154.227 29.8359 153.57 29.6641 153 29.3125C152.43 28.9609 151.992 28.4844 151.695 27.875C151.398 27.2734 151.25 26.5938 151.25 25.8359C151.25 25.2344 151.344 24.6797 151.531 24.1719C151.719 23.6719 151.969 23.25 152.297 22.9062C152.625 22.5625 153.008 22.2969 153.453 22.1094C153.898 21.9219 154.375 21.8281 154.891 21.8281C156.102 21.8281 157.125 22.2422 157.969 23.0625L159.336 21.8906C158.766 21.2734 158.094 20.8047 157.312 20.4844C156.531 20.1719 155.727 20.0078 154.898 20.0078C154.32 20.0078 153.781 20.0781 153.266 20.2109C152.75 20.3438 152.289 20.5312 151.875 20.7812C151.461 21.0312 151.086 21.3281 150.758 21.6719C150.422 22.0234 150.141 22.4141 149.922 22.8438C149.703 23.2734 149.531 23.7422 149.414 24.25C149.289 24.7578 149.234 25.2891 149.234 25.8359C149.234 26.7188 149.375 27.5234 149.672 28.25C149.961 28.9844 150.359 29.5938 150.875 30.0781C151.391 30.5625 151.992 30.9375 152.695 31.2031C153.398 31.4688 154.156 31.6016 154.969 31.6016ZM168.812 27.5078C168.812 26.7578 168.656 26.0781 168.352 25.4844C168.039 24.8906 167.602 24.4297 167.023 24.0859C166.445 23.75 165.773 23.5781 165.023 23.5781C164.484 23.5781 163.984 23.6797 163.516 23.875C163.047 24.0703 162.641 24.3438 162.305 24.6875C161.961 25.0391 161.695 25.4609 161.508 25.9609C161.312 26.4609 161.219 27.0078 161.219 27.5938C161.219 28.3906 161.391 29.1016 161.742 29.7188C162.086 30.3359 162.562 30.8047 163.172 31.1328C163.773 31.4609 164.453 31.625 165.211 31.625C165.938 31.625 166.578 31.4922 167.133 31.2266C167.688 30.9609 168.141 30.6016 168.5 30.1484L167.25 29.0781C166.758 29.6953 166.109 30 165.305 30C164.727 30 164.242 29.8438 163.844 29.5234C163.445 29.2109 163.188 28.7734 163.078 28.2188H168.766C168.797 28.0312 168.812 27.7969 168.812 27.5078ZM165.117 25.2031C165.445 25.2031 165.742 25.2734 166.008 25.4062C166.273 25.5391 166.484 25.7188 166.648 25.9531C166.812 26.1875 166.938 26.4609 167.016 26.7734H163.109C163.234 26.2734 163.477 25.8906 163.836 25.6172C164.195 25.3438 164.617 25.2031 165.117 25.2031ZM172.992 31.625C173.453 31.625 173.828 31.5859 174.117 31.5078C174.406 31.4297 174.695 31.3203 174.977 31.1641L174.508 29.6172C174.086 29.8438 173.695 29.9531 173.352 29.9531C173.094 29.9531 172.906 29.875 172.781 29.7031C172.656 29.5391 172.602 29.2578 172.602 28.8672V25.2188H174.898V23.6953H172.602V20.9062L170.812 21.1016V23.6953H169.859V25.2188H170.812V29.0312C170.812 29.8906 171 30.5312 171.383 30.9688C171.766 31.4062 172.305 31.625 172.992 31.625ZM184.414 31.625C184.781 31.625 185.148 31.5859 185.516 31.5C185.875 31.4219 186.227 31.2891 186.57 31.1016C186.914 30.9219 187.211 30.7031 187.469 30.4375C187.727 30.1797 187.938 29.8594 188.094 29.4766C188.25 29.1016 188.328 28.6797 188.328 28.2266C188.328 27.7891 188.258 27.3984 188.133 27.0547C187.906 26.4609 187.438 25.9609 186.719 25.5625C186.391 25.3828 185.75 25.1094 184.812 24.7344C184.016 24.4297 183.492 24.1953 183.25 24.0391C182.867 23.7891 182.68 23.4766 182.688 23.0859C182.688 22.6797 182.844 22.3516 183.141 22.1172C183.438 21.8828 183.82 21.7578 184.273 21.7578C185.086 21.7578 185.953 22.1484 186.891 22.9219L188.039 21.4062C186.844 20.4688 185.586 20.0078 184.273 20.0078C183.625 20.0078 183.023 20.1484 182.477 20.4297C181.93 20.7109 181.492 21.0938 181.172 21.5781C180.844 22.0703 180.688 22.6094 180.688 23.1875C180.688 23.4766 180.719 23.75 180.789 24C180.859 24.25 180.953 24.4766 181.062 24.6719C181.172 24.8672 181.312 25.0547 181.5 25.2266C181.68 25.3984 181.859 25.5547 182.039 25.6797C182.219 25.8047 182.438 25.9297 182.688 26.0547C182.938 26.1797 183.172 26.2891 183.383 26.3672C183.586 26.4531 183.836 26.5469 184.117 26.6406C184.352 26.7266 184.547 26.7969 184.695 26.8516C184.836 26.9141 185 26.9766 185.172 27.0547C185.344 27.1328 185.484 27.1953 185.586 27.2578C185.688 27.3203 185.789 27.3984 185.898 27.4844C186 27.5781 186.078 27.6641 186.133 27.7578C186.18 27.8516 186.227 27.9531 186.258 28.0703C186.289 28.1875 186.312 28.3125 186.312 28.4531C186.312 28.8906 186.148 29.2266 185.828 29.4766C185.5 29.7266 185.031 29.8438 184.422 29.8438C183.914 29.8438 183.398 29.7188 182.883 29.4609C182.367 29.2031 181.906 28.8281 181.508 28.3438L180.289 29.8438C180.867 30.4375 181.516 30.8828 182.227 31.1797C182.93 31.4766 183.664 31.625 184.414 31.625ZM192.508 31.625C192.969 31.625 193.344 31.5859 193.633 31.5078C193.922 31.4297 194.211 31.3203 194.492 31.1641L194.023 29.6172C193.602 29.8438 193.211 29.9531 192.867 29.9531C192.609 29.9531 192.422 29.875 192.297 29.7031C192.172 29.5391 192.117 29.2578 192.117 28.8672V25.2188H194.414V23.6953H192.117V20.9062L190.328 21.1016V23.6953H189.375V25.2188H190.328V29.0312C190.328 29.8906 190.516 30.5312 190.898 30.9688C191.281 31.4062 191.82 31.625 192.508 31.625ZM201.43 23.6953V24.6328H201.398C200.805 23.9297 200 23.5781 198.984 23.5781C198.453 23.5781 197.953 23.6797 197.492 23.8828C197.023 24.0859 196.625 24.3672 196.297 24.7188C195.961 25.0781 195.695 25.5078 195.508 26.0078C195.312 26.5156 195.219 27.0547 195.219 27.6328C195.219 28.1094 195.273 28.5547 195.398 28.9766C195.523 29.3984 195.695 29.7656 195.922 30.0859C196.148 30.4062 196.414 30.6797 196.727 30.9141C197.039 31.1484 197.383 31.3281 197.773 31.4453C198.164 31.5703 198.57 31.625 199 31.625C200.062 31.625 200.891 31.2344 201.484 30.4531H201.508V31.5H203.219V23.6953H201.43ZM199.281 30C198.617 30 198.078 29.7812 197.664 29.3438C197.242 28.9062 197.039 28.3359 197.039 27.6406C197.039 27.2812 197.094 26.9453 197.211 26.6328C197.328 26.3203 197.492 26.0625 197.695 25.8594C197.898 25.6562 198.133 25.4922 198.406 25.375C198.68 25.2656 198.977 25.2031 199.289 25.2031C199.922 25.2031 200.445 25.4375 200.867 25.9062C201.289 26.375 201.5 26.9531 201.5 27.6406C201.5 28.3359 201.281 28.9062 200.852 29.3438C200.422 29.7812 199.898 30 199.281 30ZM209.719 23.5781C209.242 23.5781 208.797 23.6953 208.375 23.9141C207.953 24.1328 207.594 24.4531 207.289 24.8672H207.266V23.6953H205.477V31.5H207.266V27.7969C207.266 27.375 207.344 26.9922 207.508 26.6562C207.672 26.3203 207.914 26.0547 208.242 25.8516C208.57 25.6562 208.953 25.5547 209.398 25.5547C209.555 25.5547 209.734 25.5625 209.938 25.5781V23.5859C209.891 23.5859 209.82 23.5781 209.719 23.5781ZM213.758 31.625C214.219 31.625 214.594 31.5859 214.883 31.5078C215.172 31.4297 215.461 31.3203 215.742 31.1641L215.273 29.6172C214.852 29.8438 214.461 29.9531 214.117 29.9531C213.859 29.9531 213.672 29.875 213.547 29.7031C213.422 29.5391 213.367 29.2578 213.367 28.8672V25.2188H215.664V23.6953H213.367V20.9062L211.578 21.1016V23.6953H210.625V25.2188H211.578V29.0312C211.578 29.8906 211.766 30.5312 212.148 30.9688C212.531 31.4062 213.07 31.625 213.758 31.625ZM224.031 27.5078C224.031 26.7578 223.875 26.0781 223.57 25.4844C223.258 24.8906 222.82 24.4297 222.242 24.0859C221.664 23.75 220.992 23.5781 220.242 23.5781C219.703 23.5781 219.203 23.6797 218.734 23.875C218.266 24.0703 217.859 24.3438 217.523 24.6875C217.18 25.0391 216.914 25.4609 216.727 25.9609C216.531 26.4609 216.438 27.0078 216.438 27.5938C216.438 28.3906 216.609 29.1016 216.961 29.7188C217.305 30.3359 217.781 30.8047 218.391 31.1328C218.992 31.4609 219.672 31.625 220.43 31.625C221.156 31.625 221.797 31.4922 222.352 31.2266C222.906 30.9609 223.359 30.6016 223.719 30.1484L222.469 29.0781C221.977 29.6953 221.328 30 220.523 30C219.945 30 219.461 29.8438 219.062 29.5234C218.664 29.2109 218.406 28.7734 218.297 28.2188H223.984C224.016 28.0312 224.031 27.7969 224.031 27.5078ZM220.336 25.2031C220.664 25.2031 220.961 25.2734 221.227 25.4062C221.492 25.5391 221.703 25.7188 221.867 25.9531C222.031 26.1875 222.156 26.4609 222.234 26.7734H218.328C218.453 26.2734 218.695 25.8906 219.055 25.6172C219.414 25.3438 219.836 25.2031 220.336 25.2031ZM231.688 19.7188V24.6328H231.648C231.055 23.9297 230.227 23.5781 229.18 23.5781C228.648 23.5781 228.148 23.6797 227.688 23.8828C227.219 24.0859 226.82 24.3672 226.492 24.7188C226.156 25.0781 225.891 25.5078 225.703 26.0078C225.508 26.5156 225.414 27.0547 225.414 27.6328C225.414 28.1094 225.469 28.5547 225.594 28.9766C225.719 29.3984 225.891 29.7656 226.117 30.0859C226.344 30.4062 226.609 30.6797 226.922 30.9141C227.234 31.1484 227.578 31.3281 227.969 31.4453C228.359 31.5703 228.766 31.625 229.195 31.625C230.289 31.625 231.141 31.2344 231.734 30.4531H231.766V31.5H233.477V19.7188H231.688ZM229.477 30C228.812 30 228.273 29.7812 227.859 29.3438C227.438 28.9062 227.234 28.3359 227.234 27.6406C227.234 27.2812 227.289 26.9453 227.406 26.6328C227.523 26.3203 227.688 26.0625 227.891 25.8594C228.094 25.6562 228.328 25.4922 228.602 25.375C228.875 25.2656 229.172 25.2031 229.484 25.2031C230.148 25.2031 230.695 25.4375 231.117 25.8984C231.539 26.3672 231.758 26.9453 231.758 27.6406C231.758 28.3438 231.539 28.9062 231.102 29.3438C230.664 29.7812 230.117 30 229.477 30Z" fill="#696C74"/>
</svg>
